<?xml version="1.0" encoding="utf-8"?>
<!-- Generator: Adobe Illustrator 26.1.0, SVG Export Plug-In . SVG Version: 6.00 Build 0)  -->
<svg version="1.1" id="Layer_1" xmlns="http://www.w3.org/2000/svg" xmlns:xlink="http://www.w3.org/1999/xlink" x="0px" y="0px"
	 viewBox="0 0 289.69 90" style="enable-background:new 0 0 289.69 90;" xml:space="preserve">
<style type="text/css">
	.st0{fill:#FFFFFF;}
	.st1{fill:#F1F1EF;}
	.st2{fill:#201547;}
</style>
<g>
	<rect class="st0" width="84.38" height="90"/>
	<polygon class="st1" points="26.16,90 0,90 0,0 23.46,0 46.07,47.31 	"/>
	<polygon class="st2" points="68.68,90 289.69,90 289.69,0 37.58,0 31.56,12.94 	"/>
</g>
<g>
	<path class="st0" d="M156.86,45.02l1.18-3.18h0.2l1.18,3.18H156.86z M157.29,35.22l-6.81,14.73h4.36l0.75-1.69h5.11l0.75,1.69h4.36
		l-6.81-14.73H157.29z"/>
	<path class="st0" d="M81.98,49.95h-4V35.22h4V49.95z M112.67,13.16H50.02l10.43,22.07h4.44l3.73,8.03l3.73-8.03h4.48l-6.72,14.73
		h-2.7l13.93,29.45l14.17-29.97c-1.15,0.55-2.43,0.84-3.79,0.84c-4.16,0-7.89-3.32-7.89-7.69c0-4.38,3.73-7.69,7.89-7.69
		c2.81,0,5.34,1.24,6.87,3.47l-3.34,2.04c-0.75-1.02-1.81-1.71-3.34-1.71c-2.04,0-3.81,1.86-3.81,3.89c0,2.02,1.76,3.89,3.81,3.89
		c1.53,0,2.59-0.69,3.34-1.71l1.91,1.17l3.36-7.1h2.88v11.11h4V38.84h4.02v-3.61h-9.2L112.67,13.16z"/>
	<path class="st0" d="M120.27,46.47c-2.14,0-3.89-1.75-3.89-3.89c0-2.14,1.75-3.89,3.89-3.89c2.14,0,3.89,1.75,3.89,3.89
		C124.16,44.73,122.41,46.47,120.27,46.47 M120.27,34.89c-4.38,0-8.17,3.32-8.17,7.69c0,4.38,3.79,7.69,8.17,7.69
		c4.38,0,8.17-3.32,8.17-7.69C128.44,38.21,124.65,34.89,120.27,34.89"/>
	<path class="st0" d="M136.86,42.33h-2.55v-3.49h2.55c0.9,0,1.49,1.02,1.49,1.75C138.35,41.31,137.76,42.33,136.86,42.33
		 M142.55,40.58c0-3.08-2.45-5.36-5.56-5.36h-6.69v14.72h4.01v-4.01h1.88l1.82,4.01h4.49L140.02,45
		C141.43,44.02,142.55,42.57,142.55,40.58"/>
	<rect x="144.51" y="35.22" class="st0" width="4" height="14.72"/>
	<path class="st0" d="M102.99,61.13l1.4-0.56c0.22,0.66,0.76,0.95,1.48,0.95c0.79,0,1.21-0.38,1.21-0.86c0-0.38-0.18-0.62-0.79-0.74
		l-1.34-0.27c-0.81-0.16-1.79-0.62-1.79-1.95c0-1.22,0.99-2.07,2.59-2.07c1.17,0,2.1,0.54,2.52,1.44l-1.32,0.44
		c-0.22-0.43-0.69-0.69-1.23-0.69c-0.69,0-1.11,0.38-1.11,0.84c0,0.34,0.15,0.58,0.68,0.69l1.36,0.29c1.11,0.24,1.78,0.89,1.78,1.95
		c0,1.32-1.09,2.14-2.7,2.14C104.48,62.74,103.35,62.21,102.99,61.13"/>
	<path class="st0" d="M113.14,62.36c-0.53,0.28-0.89,0.38-1.32,0.38c-1.2,0-1.99-0.63-1.99-2.02v-2.1h-1.09v-1.1h1.09v-1.53h1.34
		v1.53h1.65v1.1h-1.65v2c0,0.61,0.3,0.87,0.74,0.87c0.23,0,0.58-0.1,0.84-0.24L113.14,62.36z"/>
	<path class="st0" d="M117.41,60.06c0-0.93-0.72-1.52-1.44-1.52c-0.81,0-1.42,0.59-1.42,1.52c0,0.93,0.61,1.51,1.42,1.51
		C116.69,61.57,117.41,60.99,117.41,60.06 M118.75,57.52v5.06h-1.34v-0.39c-0.43,0.34-0.98,0.55-1.67,0.55
		c-1.29,0-2.49-1.09-2.49-2.68c0-1.59,1.2-2.69,2.49-2.69c0.69,0,1.25,0.2,1.67,0.56v-0.41H118.75z"/>
	<path class="st0" d="M123.65,62.36c-0.53,0.28-0.89,0.38-1.32,0.38c-1.2,0-1.99-0.63-1.99-2.02v-2.1h-1.09v-1.1h1.09v-1.53h1.34
		v1.53h1.65v1.1h-1.65v2c0,0.61,0.3,0.87,0.74,0.87c0.23,0,0.58-0.1,0.84-0.24L123.65,62.36z"/>
	<path class="st0" d="M125.14,59.47h2.45c-0.18-0.65-0.66-0.93-1.2-0.93C125.88,58.54,125.3,58.84,125.14,59.47 M128.95,60.41h-3.86
		c0.13,0.73,0.66,1.18,1.32,1.18c0.41,0,0.85-0.07,1.21-0.51l1.07,0.53c-0.49,0.76-1.28,1.13-2.27,1.13c-1.48,0-2.65-1.09-2.65-2.68
		c0-1.59,1.17-2.69,2.62-2.69c1.35,0,2.52,1.05,2.57,2.59V60.41z"/>
	<path class="st0" d="M109.91,68.65c0,2.02-1.44,3.53-3.45,3.53c-2.03,0-3.61-1.55-3.61-3.55c0-1.99,1.61-3.55,3.61-3.55
		c1.07,0,2.02,0.42,2.65,1.17l-1.14,0.78c-0.39-0.45-0.92-0.65-1.51-0.65c-1.22,0-2.21,0.96-2.21,2.25c0,1.29,0.98,2.26,2.25,2.26
		c1.03,0,1.81-0.61,2.04-1.57h-1.78v-1.26h3.12C109.9,68.3,109.91,68.49,109.91,68.65"/>
	<path class="st0" d="M114.61,69.51c0-0.94-0.73-1.51-1.43-1.51c-0.73,0-1.46,0.57-1.46,1.51c0,0.94,0.73,1.51,1.46,1.51
		C113.88,71.02,114.61,70.45,114.61,69.51 M115.91,69.51c0,1.59-1.25,2.66-2.73,2.66c-1.51,0-2.76-1.07-2.76-2.66
		c0-1.59,1.25-2.66,2.76-2.66C114.66,66.85,115.91,67.91,115.91,69.51"/>
	<polygon class="st0" points="121.76,66.96 119.65,72.03 118.22,72.03 116.12,66.96 117.56,66.96 118.94,70.4 120.32,66.96 	"/>
	<path class="st0" d="M123.33,68.92h2.45c-0.18-0.65-0.66-0.93-1.2-0.93C124.07,67.98,123.49,68.29,123.33,68.92 M127.14,69.86
		h-3.86c0.13,0.73,0.66,1.18,1.32,1.18c0.41,0,0.85-0.07,1.21-0.51l1.07,0.53c-0.49,0.76-1.28,1.13-2.27,1.13
		c-1.48,0-2.65-1.09-2.65-2.68c0-1.59,1.17-2.69,2.62-2.69c1.35,0,2.52,1.05,2.57,2.59V69.86z"/>
	<path class="st0" d="M131.47,66.94l-0.07,1.29h-0.29c-1.24,0-1.8,0.76-1.8,2.17v1.63h-1.34v-5.06h1.34v0.92
		c0.41-0.59,0.99-1,1.82-1C131.24,66.9,131.35,66.9,131.47,66.94"/>
	<path class="st0" d="M137.07,68.95v3.08h-1.34v-2.8c0-0.71-0.41-1.19-1.03-1.19c-0.76,0-1.26,0.51-1.26,1.75v2.24h-1.34v-5.06h1.34
		v0.46c0.4-0.39,0.92-0.61,1.59-0.61C136.26,66.82,137.07,67.69,137.07,68.95"/>
	<path class="st0" d="M146.49,68.87v3.17h-1.33v-2.89c0-0.68-0.44-1.1-0.99-1.1c-0.71,0-1.18,0.49-1.18,1.55v2.43h-1.34v-2.89
		c0-0.68-0.44-1.1-0.99-1.1c-0.71,0-1.16,0.49-1.16,1.55v2.43h-1.34v-5.06h1.34v0.42c0.35-0.35,0.85-0.57,1.51-0.57
		c0.68,0,1.3,0.29,1.67,0.83c0.42-0.52,1.03-0.83,1.85-0.83C145.57,66.82,146.49,67.63,146.49,68.87"/>
	<path class="st0" d="M148.55,68.92h2.45c-0.18-0.65-0.66-0.93-1.2-0.93C149.29,67.98,148.71,68.29,148.55,68.92 M152.36,69.86
		h-3.86c0.13,0.73,0.66,1.18,1.32,1.18c0.41,0,0.85-0.07,1.21-0.51l1.07,0.53c-0.49,0.76-1.28,1.13-2.27,1.13
		c-1.48,0-2.65-1.09-2.65-2.68c0-1.59,1.17-2.69,2.62-2.69c1.35,0,2.52,1.05,2.57,2.59V69.86z"/>
	<path class="st0" d="M158.14,68.95v3.08h-1.34v-2.8c0-0.71-0.41-1.19-1.03-1.19c-0.76,0-1.26,0.51-1.26,1.75v2.24h-1.34v-5.06h1.34
		v0.46c0.4-0.39,0.92-0.61,1.59-0.61C157.32,66.82,158.14,67.69,158.14,68.95"/>
	<path class="st0" d="M162.91,71.81c-0.53,0.28-0.89,0.38-1.32,0.38c-1.2,0-1.99-0.63-1.99-2.02v-2.1h-1.09v-1.1h1.09v-1.53h1.34
		v1.53h1.65v1.1h-1.65v2c0,0.61,0.3,0.87,0.74,0.87c0.23,0,0.58-0.1,0.84-0.24L162.91,71.81z"/>
	<rect x="181.25" y="35.21" class="st0" width="0.31" height="36.83"/>
	<path class="st0" d="M202.68,35.2v5.43c0,1.91-1.26,3.28-3.16,3.28c-1.72,0-2.88-1.14-3.11-2.75l0.96-0.22
		c0.15,1.21,0.93,2.05,2.15,2.05c1.29,0,2.15-0.98,2.15-2.36V35.2H202.68z"/>
	<path class="st0" d="M209.62,40.59c0-1.44-1.08-2.42-2.37-2.42c-1.3,0-2.4,0.98-2.4,2.42c0,1.45,1.1,2.45,2.4,2.45
		C208.53,43.03,209.62,42.04,209.62,40.59 M210.57,40.59c0,1.92-1.48,3.3-3.33,3.3c-1.87,0-3.34-1.38-3.34-3.3
		c0-1.92,1.47-3.28,3.34-3.28C209.1,37.31,210.57,38.66,210.57,40.59"/>
	<path class="st0" d="M217.52,40.6c0-1.5-1.05-2.45-2.35-2.45c-1.18,0-2.34,0.94-2.34,2.45c0,1.49,1.16,2.43,2.34,2.43
		C216.48,43.03,217.52,42.09,217.52,40.6 M218.46,40.6c0,1.99-1.47,3.3-3.14,3.3c-1.05,0-1.94-0.42-2.5-1.16v0.99h-0.97v-9.18h0.97
		v3.9c0.56-0.74,1.45-1.16,2.5-1.16C217,37.3,218.46,38.61,218.46,40.6"/>
	<path class="st0" d="M222.35,43.1c0.9,0,1.5-0.42,1.5-1.07c0-0.52-0.4-0.77-1.03-0.9l-1.38-0.32c-1.05-0.23-1.63-0.74-1.63-1.61
		c0-1.13,0.94-1.9,2.38-1.9c1.25,0,2.1,0.56,2.45,1.39l-0.91,0.28c-0.22-0.54-0.78-0.88-1.57-0.88c-0.89,0-1.39,0.43-1.39,1.03
		c0,0.5,0.34,0.73,0.96,0.87l1.45,0.33c0.92,0.22,1.62,0.69,1.62,1.64c0,1.24-1.03,1.94-2.54,1.94c-1.3,0-2.35-0.51-2.66-1.49
		l0.93-0.37C220.73,42.73,221.45,43.1,222.35,43.1"/>
	<polygon class="st0" points="226.32,45.42 225.55,45.42 226.39,42.07 227.54,42.07 227.54,42.09 	"/>
	<path class="st0" d="M202.92,51.98c0-1.02-0.75-1.75-1.98-1.75h-2.72v3.49h2.72C202.17,53.72,202.92,53,202.92,51.98 M203.92,51.98
		c0,1.57-1.15,2.65-2.97,2.65h-2.72v3.24h-1.01v-8.54h3.72C202.77,49.32,203.92,50.41,203.92,51.98"/>
	<path class="st0" d="M209.03,51.57l-0.08,0.93c-0.11-0.01-0.26-0.01-0.37-0.01c-1.67,0-2.52,1.26-2.52,2.96v2.42h-0.98v-6.28h0.98
		v1.55c0.51-0.93,1.35-1.62,2.52-1.62C208.74,51.52,208.85,51.52,209.03,51.57"/>
	<path class="st0" d="M210.5,54.19h4.37c-0.18-1.24-1.05-1.91-2.1-1.91C211.75,52.28,210.69,52.97,210.5,54.19 M215.85,54.92h-5.39
		c0.09,1.42,1.17,2.26,2.3,2.26c0.79,0,1.53-0.27,2.01-0.97l0.78,0.39c-0.57,0.94-1.57,1.43-2.79,1.43c-1.7,0-3.24-1.29-3.24-3.29
		c0-2.01,1.52-3.31,3.25-3.31c1.7,0,3.02,1.28,3.09,3.14V54.92z"/>
	<path class="st0" d="M223,56.27c-0.5,1.1-1.59,1.76-2.84,1.76c-1.77,0-3.28-1.3-3.28-3.3c0-1.98,1.5-3.3,3.28-3.3
		c1.2,0,2.27,0.61,2.8,1.66l-0.9,0.36c-0.38-0.74-1.1-1.12-1.9-1.12c-1.29,0-2.33,0.97-2.33,2.41c0,1.47,1.05,2.4,2.33,2.4
		c0.84,0,1.55-0.4,1.95-1.19L223,56.27z"/>
	<path class="st0" d="M225.51,57.86h-0.98v-6.28h0.98V57.86z M225.69,49.68c0,0.37-0.29,0.65-0.68,0.65c-0.38,0-0.66-0.28-0.66-0.65
		c0-0.34,0.28-0.65,0.66-0.65C225.4,49.03,225.69,49.34,225.69,49.68"/>
	<path class="st0" d="M233.46,54.1v3.76h-0.97v-3.58c0-1.17-0.7-1.96-1.75-1.96c-1.31,0-2.18,0.89-2.18,2.52v3.02h-0.97v-6.28h0.97
		v1.03c0.51-0.75,1.33-1.18,2.37-1.18C232.45,51.43,233.46,52.51,233.46,54.1"/>
	<path class="st0" d="M241.03,56.27c-0.5,1.1-1.59,1.76-2.84,1.76c-1.77,0-3.28-1.3-3.28-3.3c0-1.98,1.5-3.3,3.28-3.3
		c1.2,0,2.27,0.61,2.8,1.66l-0.9,0.36c-0.38-0.74-1.1-1.12-1.9-1.12c-1.29,0-2.33,0.97-2.33,2.41c0,1.47,1.05,2.4,2.33,2.4
		c0.84,0,1.55-0.4,1.95-1.19L241.03,56.27z"/>
	<path class="st0" d="M246.66,57.53c-0.51,0.36-0.94,0.5-1.45,0.5c-1.25,0-2.08-0.74-2.08-2.13V52.4h-1.36v-0.82h1.36v-2h0.98v2
		h2.24v0.82h-2.24v3.44c0,0.82,0.46,1.27,1.16,1.27c0.36,0,0.75-0.15,1.07-0.38L246.66,57.53z"/>
	<path class="st0" d="M250.26,57.23c0.9,0,1.5-0.42,1.5-1.07c0-0.52-0.4-0.77-1.03-0.9l-1.38-0.32c-1.05-0.23-1.63-0.74-1.63-1.61
		c0-1.13,0.94-1.9,2.38-1.9c1.25,0,2.1,0.56,2.45,1.39l-0.9,0.28c-0.22-0.54-0.78-0.88-1.57-0.88c-0.89,0-1.39,0.43-1.39,1.03
		c0,0.5,0.34,0.73,0.96,0.87l1.45,0.33c0.92,0.22,1.62,0.69,1.62,1.64c0,1.24-1.03,1.94-2.54,1.94c-1.3,0-2.35-0.51-2.66-1.49
		l0.93-0.37C248.64,56.86,249.35,57.23,250.26,57.23"/>
	<path class="st0" d="M202.22,69.05v-0.38c-0.1-1.39-1.21-2.26-2.34-2.26c-1.3,0-2.35,0.94-2.35,2.45c0,1.49,1.05,2.43,2.35,2.43
		C201.01,71.29,202.12,70.43,202.22,69.05 M203.19,65.71v6.28h-0.97v-0.98c-0.57,0.73-1.45,1.15-2.5,1.15
		c-1.67,0-3.14-1.31-3.14-3.3c0-1.99,1.47-3.3,3.14-3.3c1.04,0,1.92,0.42,2.5,1.15v-0.99H203.19z"/>
	<path class="st0" d="M210.78,68.23v3.76h-0.97v-3.58c0-1.17-0.7-1.96-1.75-1.96c-1.31,0-2.18,0.89-2.18,2.52v3.02h-0.97v-6.28h0.97
		v1.03c0.51-0.75,1.33-1.18,2.37-1.18C209.77,65.56,210.78,66.64,210.78,68.23"/>
	<path class="st0" d="M217.48,69.05v-0.38c-0.1-1.39-1.21-2.26-2.35-2.26c-1.3,0-2.35,0.94-2.35,2.45c0,1.49,1.05,2.43,2.35,2.43
		C216.27,71.29,217.38,70.43,217.48,69.05 M218.45,62.82v9.18h-0.97v-0.98c-0.58,0.73-1.45,1.15-2.5,1.15
		c-1.67,0-3.14-1.31-3.14-3.3c0-1.99,1.46-3.3,3.14-3.3c1.05,0,1.92,0.42,2.5,1.15v-3.89H218.45z"/>
	<path class="st0" d="M224.79,67.86h2.72c1.2,0,2.01-0.7,2.01-1.75c0-1.06-0.82-1.76-2.01-1.76h-2.72V67.86z M230.75,71.99h-1.29
		l-2.64-3.21h-2.04v3.21h-1.01v-8.54h3.72c1.8,0,3.02,1.06,3.02,2.66c0,1.45-1.01,2.46-2.54,2.64L230.75,71.99z"/>
	<path class="st0" d="M232.5,68.32h4.37c-0.18-1.24-1.05-1.91-2.1-1.91C233.75,66.41,232.69,67.1,232.5,68.32 M237.85,69.05h-5.39
		c0.09,1.42,1.17,2.26,2.3,2.26c0.79,0,1.53-0.27,2.01-0.97l0.78,0.39c-0.57,0.94-1.57,1.43-2.79,1.43c-1.7,0-3.24-1.29-3.24-3.29
		c0-2.01,1.52-3.31,3.25-3.31c1.7,0,3.02,1.28,3.08,3.14V69.05z"/>
	<path class="st0" d="M244.34,68.58c0-1.34-1.05-2.18-2.22-2.18c-1.27,0-2.3,0.84-2.3,2.18c0,1.34,1.02,2.21,2.3,2.21
		C243.3,70.78,244.34,69.92,244.34,68.58 M245.3,71.48c-0.01,1.84-1.39,2.93-3.29,2.93c-1.19,0-2.17-0.39-2.73-1.08l0.65-0.71
		c0.46,0.56,1.15,0.92,2.06,0.92c1.35,0,2.34-0.84,2.34-2.18v-0.76c-0.51,0.66-1.31,1.03-2.36,1.03c-1.66,0-3.1-1.26-3.1-3.05
		c0-1.77,1.44-3.02,3.1-3.02c1.05,0,1.85,0.38,2.36,1.03v-0.88h0.94L245.3,71.48z"/>
	<path class="st0" d="M248.38,71.99h-0.98v-6.28h0.98V71.99z M248.56,63.81c0,0.37-0.29,0.65-0.68,0.65c-0.38,0-0.66-0.28-0.66-0.65
		c0-0.34,0.28-0.65,0.66-0.65C248.27,63.16,248.56,63.47,248.56,63.81"/>
	<path class="st0" d="M255.64,68.85c0-1.44-1.08-2.42-2.37-2.42c-1.3,0-2.4,0.98-2.4,2.42c0,1.45,1.1,2.45,2.4,2.45
		C254.55,71.29,255.64,70.3,255.64,68.85 M256.59,68.85c0,1.92-1.48,3.3-3.33,3.3c-1.87,0-3.34-1.38-3.34-3.3
		c0-1.93,1.47-3.28,3.34-3.28C255.12,65.57,256.59,66.92,256.59,68.85"/>
	<path class="st0" d="M263.82,68.23v3.76h-0.97v-3.58c0-1.17-0.7-1.96-1.75-1.96c-1.31,0-2.18,0.89-2.18,2.52v3.02h-0.97v-6.28h0.97
		v1.03c0.51-0.75,1.33-1.18,2.37-1.18C262.81,65.56,263.82,66.64,263.82,68.23"/>
	<path class="st0" d="M267.71,71.36c0.9,0,1.5-0.42,1.5-1.07c0-0.52-0.4-0.77-1.03-0.9l-1.38-0.32c-1.05-0.23-1.63-0.74-1.63-1.61
		c0-1.13,0.94-1.9,2.38-1.9c1.25,0,2.1,0.56,2.45,1.39l-0.9,0.28c-0.22-0.54-0.78-0.88-1.57-0.88c-0.89,0-1.39,0.43-1.39,1.03
		c0,0.5,0.34,0.73,0.96,0.87l1.45,0.33c0.92,0.22,1.62,0.69,1.62,1.64c0,1.24-1.03,1.94-2.54,1.94c-1.3,0-2.35-0.51-2.66-1.49
		l0.93-0.37C266.09,70.99,266.81,71.36,267.71,71.36"/>
</g>
</svg>
